<svg width="25" height="31" viewBox="0 0 25 31" fill="none" xmlns="http://www.w3.org/2000/svg">
<path d="M23.9091 12.9545C23.9091 21.8636 12.4545 29.5 12.4545 29.5C12.4545 29.5 1 21.8636 1 12.9545C1 9.91661 2.20681 7.0031 4.35496 4.85496C6.5031 2.70681 9.41661 1.5 12.4545 1.5C15.4925 1.5 18.406 2.70681 20.5541 4.85496C22.7023 7.0031 23.9091 9.91661 23.9091 12.9545Z" stroke="#1F252F" stroke-width="2" stroke-linecap="round" stroke-linejoin="round"/>
<path d="M12.4546 16.7727C14.5633 16.7727 16.2727 15.0632 16.2727 12.9545C16.2727 10.8458 14.5633 9.13632 12.4546 9.13632C10.3458 9.13632 8.63638 10.8458 8.63638 12.9545C8.63638 15.0632 10.3458 16.7727 12.4546 16.7727Z" stroke="#1F252F" stroke-width="2" stroke-linecap="round" stroke-linejoin="round"/>
</svg>
